{"title":"Macgruber.2010.CAM.XviD-PrisM","uid":5628908,"size":753897835,"categoryP":"video","categoryS":"movies","magnet":"?xt=urn:btih:f3f83bb83444c4eac9a8b5ecda6f96aa61d17d39&amp;dn=Macgruber.2010.CAM.XviD-PrisM&amp;tr=udp%3A%2F%2Ftracker.openbittorrent.com%3A80&amp;tr=udp%3A%2F%2Fopen.demonii.com%3A1337&amp;tr=udp%3A%2F%2Ftracker.coppersurfer.tk%3A6969&amp;tr=udp%3A%2F%2Fexodus.desync.com%3A6969","seeders":1,"leechers":0,"uploader":"hiest","files":54,"time":1276588626,"description":"Ex-special operative MacGruber is called back into action to take down his archenemy, Dieter Von Cunth, who's in possession of a nuclear warhead and bent on destroying Washington, D.C. \n\n \nimdb.com/title/tt1470023/\nDirector:Jorma Taccone\nRelease Date:21 May 2010 (USA)\nGenre:Action | Comedy \n\n \nVideo\nID : 0\nFormat : MPEG-4 Visual\nFormat profile : Simple@L3\nFormat settings, BVOP : No\nFormat settings, QPel : No\nFormat settings, GMC : No warppoints\nFormat settings, Matrix : Default (H.263)\nCodec ID : XVID\nCodec ID/Hint : XviD\nDuration : 1h 22mn\nBit rate : 1 069 Kbps\nWidth : 720 pixels\nHeight : 288 pixels\nDisplay aspect ratio : 2.500\nFrame rate : 25.000 fps\nResolution : 8 bits\nColorimetry : 4:2:0\nScan type : Progressive\nBits/(Pixel*Frame) : 0.206\nStream size : 628 MiB (89%)\nWriting library : XviD 1.2.1 (UTC 2008-12-04)\n\nAudio\nID : 1\nFormat : MPEG Audio\nFormat version : Version 1\nFormat profile : Layer 3\nMode : Joint stereo\nFormat_Settings_ModeExtension : MS Stereo\nCodec ID : 55\nCodec ID/Hint : MP3\nDuration : 1h 22mn\nBit rate mode : Variable\nBit rate : 126 Kbps\nNominal bit rate : 128 Kbps\nChannel(s) : 2 channels\nSampling rate : 48.0 KHz\nStream size : 73.7 MiB (10%)\nAlignment : Aligned on interleaves\nInterleave, duration : 24 ms (0.60 video frame)\nInterleave, preload duration : 498 ms\nWriting library : LAME3.90.\nEncoding settings : -m j -V 4 -q 2 -lowpass 17.6 --abr 128\n\n\n &lt;a href=&quot;\nhttp://postimg.com/image/17000/16297.jpg&quot; rel=&quot;nofollow&quot; target=&quot;_NEW&quot;&gt;\nhttp://postimg.com/image/17000/16297.jpg&lt;/a&gt;","torrent":{"xt":"urn:btih:f3f83bb83444c4eac9a8b5ecda6f96aa61d17d39","amp;dn":"Macgruber.2010.CAM.XviD-PrisM","amp;tr":["udp%3A%2F%2Ftracker.openbittorrent.com%3A80","udp%3A%2F%2Fopen.demonii.com%3A1337","udp%3A%2F%2Ftracker.coppersurfer.tk%3A6969","udp%3A%2F%2Fexodus.desync.com%3A6969"],"infoHash":"f3f83bb83444c4eac9a8b5ecda6f96aa61d17d39","infoHashBuffer":{"type":"Buffer","data":[243,248,59,184,52,68,196,234,201,168,181,236,218,111,150,170,97,209,125,57]},"announce":[],"urlList":[]}}